<?xml version="1.0" standalone="no"?><!DOCTYPE svg PUBLIC "-//W3C//DTD SVG 1.1//EN" "http://www.w3.org/Graphics/SVG/1.1/DTD/svg11.dtd"><svg t="1536381735003" class="icon" style="" viewBox="0 0 1024 1024" version="1.1" xmlns="http://www.w3.org/2000/svg" p-id="3243" xmlns:xlink="http://www.w3.org/1999/xlink" width="128" height="128"><defs><style type="text/css"></style></defs><path d="M120.832 176.128l788.48 0 0 88.064-788.48 0 0-88.064Z" p-id="3244" fill="#399b0e"></path><path d="M665.6 75.776l63.488 0 0 174.08-63.488 0 0-174.08Z" p-id="3245" fill="#399b0e"></path><path d="M299.008 75.776l63.488 0 0 174.08-63.488 0 0-174.08Z" p-id="3246" fill="#399b0e"></path><path d="M120.832 323.584l0 620.544 788.48 0L909.312 323.584 120.832 323.584zM313.344 897.024 159.744 897.024l0-153.6 155.648 0L315.392 897.024zM313.344 712.704 159.744 712.704l0-153.6 155.648 0L315.392 712.704zM313.344 526.336 159.744 526.336l0-153.6 155.648 0L315.392 526.336zM495.616 897.024l-155.648 0 0-153.6 155.648 0L495.616 897.024zM495.616 712.704l-155.648 0 0-153.6 155.648 0L495.616 712.704zM495.616 526.336l-155.648 0 0-153.6 155.648 0L495.616 526.336zM677.888 897.024l-155.648 0 0-153.6 155.648 0L677.888 897.024zM677.888 712.704l-155.648 0 0-153.6 155.648 0L677.888 712.704zM677.888 526.336l-155.648 0 0-153.6 155.648 0L677.888 526.336zM858.112 897.024l-155.648 0 0-153.6 155.648 0L858.112 897.024zM858.112 712.704l-155.648 0 0-153.6 155.648 0L858.112 712.704zM858.112 526.336l-155.648 0 0-153.6 155.648 0L858.112 526.336z" p-id="3247" fill="#399b0e"></path></svg>