<?xml version="1.0" standalone="no"?><!DOCTYPE svg PUBLIC "-//W3C//DTD SVG 1.1//EN" "http://www.w3.org/Graphics/SVG/1.1/DTD/svg11.dtd"><svg t="1535256856117" class="icon" style="" viewBox="0 0 1024 1024" version="1.1" xmlns="http://www.w3.org/2000/svg" p-id="6051" xmlns:xlink="http://www.w3.org/1999/xlink" width="128" height="128"><defs><style type="text/css"></style></defs><path d="M653.68832 90.0096l53.54624-77.62432c2.28736-3.31136 1.44896-7.8912-1.86752-10.17088l-1.33504-0.92672c-3.3216-2.28736-7.88992-1.44384-10.176 1.87264L638.7712 83.00928c-35.97184-15.5968-76.11264-24.30336-118.46272-24.30336-40.18304 0-78.39872 7.84768-112.93568 21.97504L354.74304 4.3904c-2.28736-3.32288-6.86592-4.15488-10.176-1.8688l-1.33504 0.9152c-3.31648 2.28736-4.15872 6.86976-1.87776 10.1824l50.8928 73.76896c-80.02048 38.23232-137.52832 111.13216-149.23776 197.21216l554.59584 0C786.17344 200.44544 730.93632 128.88064 653.68832 90.0096zM403.53792 201.20448c-15.26144 0-27.63648-12.37376-27.63648-27.63648 0-15.26272 12.37504-27.63264 27.63648-27.63264 15.25632 0 27.63136 12.36864 27.63136 27.63264C431.16928 188.83072 418.79552 201.20448 403.53792 201.20448zM642.08896 201.20448c-15.26272 0-27.63648-12.37376-27.63648-27.63648 0-15.26272 12.37504-27.63264 27.63648-27.63264 15.26272 0 27.63136 12.36864 27.63136 27.63264C669.72032 188.83072 657.35168 201.20448 642.08896 201.20448z" p-id="6052" fill="#459507"></path><path d="M137.05728 324.80384l12.24832 0c30.32576 0 55.13088 31.75424 55.13088 70.56768l0 226.40768c0 38.83264-24.80512 70.57664-55.13088 70.57664l-12.24832 0c-30.33088 0-55.13728-31.744-55.13728-70.57664L81.92 395.37024C81.92 356.55808 106.7264 324.80384 137.05728 324.80384L137.05728 324.80384z" p-id="6053" fill="#459507"></path><path d="M895.14368 326.14784l12.25472 0c30.32064 0 55.12576 31.74912 55.12576 70.56768l0 226.4128c0 38.81728-24.80512 70.57664-55.12576 70.57664l-12.25472 0c-30.32576 0-55.13728-31.75936-55.13728-70.57664L840.0064 396.71552C840.0064 357.89696 864.81792 326.14784 895.14368 326.14784L895.14368 326.14784z" p-id="6054" fill="#459507"></path><path d="M472.81664 824.47872l0 127.61856c0 38.7968-24.8 70.55488-55.13088 70.55488l-12.25472 0c-30.32448 0-55.12576-31.75808-55.12576-70.55488l0-127.61856-50.70976 0c-31.01568 0-56.38784-25.37088-56.38784-56.39808L243.20768 321.32992l558.6304 0 0 446.75072c0 31.0272-25.37088 56.39808-56.38784 56.39808l-46.51008 0 0 129.10336c0 38.81216-24.81024 69.2928-55.13088 69.2928l-12.25344 0c-30.32576 0-55.12704-30.47936-55.12704-69.2928L576.4288 824.47872 472.81664 824.47872 472.81664 824.47872z" p-id="6055" fill="#459507"></path></svg>