<svg xmlns="http://www.w3.org/2000/svg" xmlns:xlink="http://www.w3.org/1999/xlink" id="processonSvg1000" viewBox="45.86435331230271 16.953244274809208 740.1356466876973 504.0467557251909" width="740.1356466876973" height="504.0467557251909"><defs id="ProcessOnDefs1001"><marker id="ProcessOnMarker1023" markerUnits="userSpaceOnUse" orient="auto" markerWidth="16.23606797749979" markerHeight="10.550836550532098" viewBox="-1.0 -1.3763819204711736 16.23606797749979 10.550836550532098" refX="-1.0" refY="3.8990363547948754"><path id="ProcessOnPath1024" d="M12.0 3.8990363547948754L0.0 7.798072709589751V0.0Z" stroke="#323232" stroke-width="2.0" fill="#323232" transform="matrix(1.0,0.0,0.0,1.0,0.0,0.0)"/></marker><marker id="ProcessOnMarker1030" markerUnits="userSpaceOnUse" orient="auto" markerWidth="16.23606797749979" markerHeight="10.550836550532098" viewBox="-1.0 -1.3763819204711736 16.23606797749979 10.550836550532098" refX="-1.0" refY="3.8990363547948754"><path id="ProcessOnPath1031" d="M12.0 3.8990363547948754L0.0 7.798072709589751V0.0Z" stroke="#323232" stroke-width="2.0" fill="#323232" transform="matrix(1.0,0.0,0.0,1.0,0.0,0.0)"/></marker><marker id="ProcessOnMarker1037" markerUnits="userSpaceOnUse" orient="auto" markerWidth="16.23606797749979" markerHeight="10.550836550532098" viewBox="-1.0 -1.3763819204711736 16.23606797749979 10.550836550532098" refX="-1.0" refY="3.8990363547948754"><path id="ProcessOnPath1038" d="M12.0 3.8990363547948754L0.0 7.798072709589751V0.0Z" stroke="#ff0000" stroke-width="2.0" fill="#ff0000" transform="matrix(1.0,0.0,0.0,1.0,0.0,0.0)"/></marker><marker id="ProcessOnMarker1047" markerUnits="userSpaceOnUse" orient="auto" markerWidth="16.23606797749979" markerHeight="10.550836550532098" viewBox="-1.0 -1.3763819204711736 16.23606797749979 10.550836550532098" refX="-1.0" refY="3.8990363547948754"><path id="ProcessOnPath1048" d="M12.0 3.8990363547948754L0.0 7.798072709589751V0.0Z" stroke="#cccc00" stroke-width="2.0" fill="#cccc00" transform="matrix(1.0,0.0,0.0,1.0,0.0,0.0)"/></marker><marker id="ProcessOnMarker1054" markerUnits="userSpaceOnUse" orient="auto" markerWidth="16.23606797749979" markerHeight="10.550836550532098" viewBox="-1.0 -1.3763819204711736 16.23606797749979 10.550836550532098" refX="-1.0" refY="3.8990363547948754"><path id="ProcessOnPath1055" d="M12.0 3.8990363547948754L0.0 7.798072709589751V0.0Z" stroke="#cccc00" stroke-width="2.0" fill="#cccc00" transform="matrix(1.0,0.0,0.0,1.0,0.0,0.0)"/></marker><marker id="ProcessOnMarker1061" markerUnits="userSpaceOnUse" orient="auto" markerWidth="16.23606797749979" markerHeight="10.550836550532098" viewBox="-1.0 -1.3763819204711736 16.23606797749979 10.550836550532098" refX="-1.0" refY="3.8990363547948754"><path id="ProcessOnPath1062" d="M12.0 3.8990363547948754L0.0 7.798072709589751V0.0Z" stroke="#cccc00" stroke-width="2.0" fill="#cccc00" transform="matrix(1.0,0.0,0.0,1.0,0.0,0.0)"/></marker><marker id="ProcessOnMarker1068" markerUnits="userSpaceOnUse" orient="auto" markerWidth="16.23606797749979" markerHeight="10.550836550532098" viewBox="-1.0 -1.3763819204711736 16.23606797749979 10.550836550532098" refX="-1.0" refY="3.8990363547948754"><path id="ProcessOnPath1069" d="M12.0 3.8990363547948754L0.0 7.798072709589751V0.0Z" stroke="#323232" stroke-width="2.0" fill="#323232" transform="matrix(1.0,0.0,0.0,1.0,0.0,0.0)"/></marker><marker id="ProcessOnMarker1075" markerUnits="userSpaceOnUse" orient="auto" markerWidth="16.23606797749979" markerHeight="10.550836550532098" viewBox="-1.0 -1.3763819204711736 16.23606797749979 10.550836550532098" refX="-1.0" refY="3.8990363547948754"><path id="ProcessOnPath1076" d="M12.0 3.8990363547948754L0.0 7.798072709589751V0.0Z" stroke="#ff0000" stroke-width="2.0" fill="#ff0000" transform="matrix(1.0,0.0,0.0,1.0,0.0,0.0)"/></marker></defs><g id="ProcessOnG1002"><path id="ProcessOnPath1003" d="M45.86435331230271 16.953244274809208H786.0V521.0000000000001H45.86435331230268V16.953244274809208Z" fill="none"/><g id="ProcessOnG1004"><g id="ProcessOnG1005" transform="matrix(1.0,0.0,0.0,1.0,554.1427444794951,36.95324427480921)" opacity="1.0"><path id="ProcessOnPath1006" d="M48.428627760252425 30.0L48.428627760252425 464.0467557251909" stroke="#000000" stroke-width="2.0" stroke-dasharray="2.0 3.0" opacity="1.0" fill="none"/><path id="ProcessOnPath1007" d="M0.0 0.0L96.85725552050485 0.0L96.85725552050485 30.0L0.0 30.0Z" stroke="#000000" stroke-width="2.0" stroke-dasharray="none" opacity="1.0" fill="#ffffcc"/><g id="ProcessOnG1008" transform="matrix(1.0,0.0,0.0,1.0,10.0,6.875)"><text id="ProcessOnText1009" fill="#000000" font-size="13" x="37.428627760252425" y="13.325" font-family="微软雅黑" font-weight="bold" font-style="normal" text-decoration="none" family="微软雅黑" text-anchor="middle" size="13">API服务端</text></g></g><g id="ProcessOnG1010" transform="matrix(1.0,0.0,0.0,1.0,102.77129337539421,96.83062977099235)" opacity="1.0"><path id="ProcessOnPath1011" d="M0.0 0.0L21.593059936908503 0.0L21.593059936908503 269.16937022900765L0.0 269.16937022900765Z" stroke="#000000" stroke-width="2.0" stroke-dasharray="none" opacity="1.0" fill="#ffffff"/></g><g id="ProcessOnG1012" transform="matrix(1.0,0.0,0.0,1.0,102.77129337539421,372.83062977099235)" opacity="1.0"><path id="ProcessOnPath1013" d="M0.0 0.0L21.593059936908503 0.0L21.593059936908503 118.16937022900765L0.0 118.16937022900765Z" stroke="#00994d" stroke-width="2.0" stroke-dasharray="none" opacity="1.0" fill="#ffffff"/></g><g id="ProcessOnG1014" transform="matrix(1.0,0.0,0.0,1.0,67.14274447949515,36.95324427480924)" opacity="1.0"><path id="ProcessOnPath1015" d="M46.42507886435331 30.0L46.42507886435331 464.0467557251908" stroke="#000000" stroke-width="2.0" stroke-dasharray="2.0 3.0" opacity="1.0" fill="none"/><path id="ProcessOnPath1016" d="M0.0 0.0L92.85015772870662 0.0L92.85015772870662 30.0L0.0 30.0Z" stroke="#000000" stroke-width="2.0" stroke-dasharray="none" opacity="1.0" fill="#ffffcc"/><g id="ProcessOnG1017" transform="matrix(1.0,0.0,0.0,1.0,10.0,6.875)"><text id="ProcessOnText1018" fill="#000000" font-size="13" x="35.42507886435331" y="13.325" font-family="微软雅黑" font-weight="bold" font-style="normal" text-decoration="none" family="微软雅黑" text-anchor="middle" size="13">APP客户端</text></g></g><g id="ProcessOnG1019" transform="matrix(1.0,0.0,0.0,1.0,589.7712933753942,96.83062977099235)" opacity="1.0"><path id="ProcessOnPath1020" d="M0.0 0.0L21.593059936908503 0.0L21.593059936908503 88.16937022900765L0.0 88.16937022900765Z" stroke="#000000" stroke-width="2.0" stroke-dasharray="none" opacity="1.0" fill="#ffffff"/></g><g id="ProcessOnG1021"><path id="ProcessOnPath1022" d="M124.0 110.0L357.0 110.0L357.0 109.0L574.7639320225002 109.0" stroke="#323232" stroke-width="2.0" stroke-dasharray="none" fill="none" marker-end="url(#ProcessOnMarker1023)"/><g id="ProcessOnG1025" transform="matrix(1.0,0.0,0.0,1.0,349.8819660112501,101.875)"><path id="ProcessOnPath1026" d="M0 0H37.0V16.25H0Z" fill="#fff" transform="matrix(1.0,0.0,0.0,1.0,-18.5,0.0)"/><text id="ProcessOnText1027" fill="#000000" font-size="13" x="0.0" y="13.325" font-family="微软雅黑" font-weight="normal" font-style="normal" text-decoration="none" family="微软雅黑" text-anchor="middle" size="13">1.登录</text></g></g><g id="ProcessOnG1028"><path id="ProcessOnPath1029" d="M590.0 170.0L357.0 170.0L357.0 172.0L139.2360679774998 172.0" stroke="#323232" stroke-width="2.0" stroke-dasharray="none" fill="none" marker-end="url(#ProcessOnMarker1030)"/><g id="ProcessOnG1032" transform="matrix(1.0,0.0,0.0,1.0,363.6180339887499,161.875)"><path id="ProcessOnPath1033" d="M0 0H108.0V16.25H0Z" fill="#fff" transform="matrix(1.0,0.0,0.0,1.0,-54.0,0.0)"/><text id="ProcessOnText1034" fill="#000000" font-size="13" x="0.0" y="13.325" font-family="微软雅黑" font-weight="normal" font-style="normal" text-decoration="none" family="微软雅黑" text-anchor="middle" size="13">3.返回SESSIONID</text></g></g><g id="ProcessOnG1035"><path id="ProcessOnPath1036" d="M124.36435331230271 231.41531488549617L154.3643533123027 231.41531488549617L154.3643533123027 424.0L139.2360679774998 424.0" stroke="#ff0000" stroke-width="2.0" stroke-dasharray="none" fill="none" marker-end="url(#ProcessOnMarker1037)"/><g id="ProcessOnG1039" transform="matrix(1.0,0.0,0.0,1.0,154.3643533123027,304.02180011014957)"><path id="ProcessOnPath1040" d="M0 0H177.0V32.5H0Z" fill="#fff" transform="matrix(1.0,0.0,0.0,1.0,-88.5,0.0)"/><text id="ProcessOnText1041" fill="#000000" font-size="13" x="0.0" y="13.325" font-family="微软雅黑" font-weight="normal" font-style="normal" text-decoration="none" family="微软雅黑" text-anchor="middle" size="13">5.将SESSIONID</text><text id="ProcessOnText1042" fill="#000000" font-size="13" x="0.0" y="29.575" font-family="微软雅黑" font-weight="normal" font-style="normal" text-decoration="none" family="微软雅黑" text-anchor="middle" size="13">异步设置给WebView的Cookie</text></g></g><g id="ProcessOnG1043" transform="matrix(1.0,0.0,0.0,1.0,591.2712933753942,372.83062977099235)" opacity="1.0"><path id="ProcessOnPath1044" d="M0.0 0.0L18.593059936908503 0.0L18.593059936908503 118.16937022900765L0.0 118.16937022900765Z" stroke="#000000" stroke-width="2.0" stroke-dasharray="none" opacity="1.0" fill="#ffffff"/></g><g id="ProcessOnG1045"><path id="ProcessOnPath1046" d="M124.0 384.0L358.0 384.0L358.0 384.0L576.7639320225002 384.0" stroke="#cccc00" stroke-width="2.0" stroke-dasharray="none" fill="none" marker-end="url(#ProcessOnMarker1047)"/><g id="ProcessOnG1049" transform="matrix(1.0,0.0,0.0,1.0,350.3819660112501,375.875)"><path id="ProcessOnPath1050" d="M0 0H292.0V16.25H0Z" fill="#fff" transform="matrix(1.0,0.0,0.0,1.0,-146.0,0.0)"/><text id="ProcessOnText1051" fill="#000000" font-size="13" x="0.0" y="13.325" font-family="微软雅黑" font-weight="normal" font-style="normal" text-decoration="none" family="微软雅黑" text-anchor="middle" size="13">6.加载axx.html，WebView请请求头中没有Cookie</text></g></g><g id="ProcessOnG1052"><path id="ProcessOnPath1053" d="M592.0 459.45246730262585L358.0 459.45246730262585L358.0 459.45246730262585L139.2360679774998 459.45246730262585" stroke="#cccc00" stroke-width="2.0" stroke-dasharray="none" fill="none" marker-end="url(#ProcessOnMarker1054)"/><g id="ProcessOnG1056" transform="matrix(1.0,0.0,0.0,1.0,365.6180339887499,451.32746730262585)"><path id="ProcessOnPath1057" d="M0 0H102.0V16.25H0Z" fill="#fff" transform="matrix(1.0,0.0,0.0,1.0,-51.0,0.0)"/><text id="ProcessOnText1058" fill="#000000" font-size="13" x="0.0" y="13.325" font-family="微软雅黑" font-weight="normal" font-style="normal" text-decoration="none" family="微软雅黑" text-anchor="middle" size="13">8.被拦截后的信息</text></g></g><g id="ProcessOnG1059"><path id="ProcessOnPath1060" d="M609.0 383.0L639.0 383.0L639.0 459.45246730262585L624.2360679774998 459.45246730262585" stroke="#cccc00" stroke-width="2.0" stroke-dasharray="none" fill="none" marker-end="url(#ProcessOnMarker1061)"/><g id="ProcessOnG1063" transform="matrix(1.0,0.0,0.0,1.0,639.0,405.48319966256304)"><path id="ProcessOnPath1064" d="M0 0H254.0V16.25H0Z" fill="#fff" transform="matrix(1.0,0.0,0.0,1.0,-127.0,0.0)"/><text id="ProcessOnText1065" fill="#000000" font-size="13" x="0.0" y="13.325" font-family="微软雅黑" font-weight="normal" font-style="normal" text-decoration="none" family="微软雅黑" text-anchor="middle" size="13">7.Cookie为空，没有SESSIONID，认证失败</text></g></g><g id="ProcessOnG1066"><path id="ProcessOnPath1067" d="M611.0 111.0L640.0 111.0L640.0 169.0L626.2360679774998 169.0" stroke="#323232" stroke-width="2.0" stroke-dasharray="none" fill="none" marker-end="url(#ProcessOnMarker1068)"/><g id="ProcessOnG1070" transform="matrix(1.0,0.0,0.0,1.0,640.0,124.25696601125009)"><path id="ProcessOnPath1071" d="M0 0H89.0V16.25H0Z" fill="#fff" transform="matrix(1.0,0.0,0.0,1.0,-44.5,0.0)"/><text id="ProcessOnText1072" fill="#000000" font-size="13" x="0.0" y="13.325" font-family="微软雅黑" font-weight="normal" font-style="normal" text-decoration="none" family="微软雅黑" text-anchor="middle" size="13">2.验证登录信息</text></g></g><g id="ProcessOnG1073"><path id="ProcessOnPath1074" d="M124.0 188.0L431.0 188.0L431.0 424.0L139.2360679774998 424.0" stroke="#ff0000" stroke-width="2.0" stroke-dasharray="none" fill="none" marker-end="url(#ProcessOnMarker1075)"/><g id="ProcessOnG1077" transform="matrix(1.0,0.0,0.0,1.0,431.0,290.2569660112501)"><path id="ProcessOnPath1078" d="M0 0H243.0V16.25H0Z" fill="#fff" transform="matrix(1.0,0.0,0.0,1.0,-121.5,0.0)"/><text id="ProcessOnText1079" fill="#000000" font-size="13" x="0.0" y="13.325" font-family="微软雅黑" font-weight="normal" font-style="normal" text-decoration="none" family="微软雅黑" text-anchor="middle" size="13">4.removeSessionCookie 异步删除Cookie</text></g></g></g></g></svg>