<svg xmlns="http://www.w3.org/2000/svg" xmlns:xlink="http://www.w3.org/1999/xlink" id="processonSvg1000" viewBox="17.5 16.953244274809208 771.0 504.0467557251909" width="771.0" height="504.0467557251909"><defs id="ProcessOnDefs1001"><marker id="ProcessOnMarker1023" markerUnits="userSpaceOnUse" orient="auto" markerWidth="16.23606797749979" markerHeight="10.550836550532098" viewBox="-1.0 -1.3763819204711736 16.23606797749979 10.550836550532098" refX="-1.0" refY="3.8990363547948754"><path id="ProcessOnPath1024" d="M12.0 3.8990363547948754L0.0 7.798072709589751V0.0Z" stroke="#323232" stroke-width="2.0" fill="#323232" transform="matrix(1.0,0.0,0.0,1.0,0.0,0.0)"/></marker><marker id="ProcessOnMarker1030" markerUnits="userSpaceOnUse" orient="auto" markerWidth="16.23606797749979" markerHeight="10.550836550532098" viewBox="-1.0 -1.3763819204711736 16.23606797749979 10.550836550532098" refX="-1.0" refY="3.8990363547948754"><path id="ProcessOnPath1031" d="M12.0 3.8990363547948754L0.0 7.798072709589751V0.0Z" stroke="#323232" stroke-width="2.0" fill="#323232" transform="matrix(1.0,0.0,0.0,1.0,0.0,0.0)"/></marker><marker id="ProcessOnMarker1037" markerUnits="userSpaceOnUse" orient="auto" markerWidth="16.23606797749979" markerHeight="10.550836550532098" viewBox="-1.0 -1.3763819204711736 16.23606797749979 10.550836550532098" refX="-1.0" refY="3.8990363547948754"><path id="ProcessOnPath1038" d="M12.0 3.8990363547948754L0.0 7.798072709589751V0.0Z" stroke="#323232" stroke-width="2.0" fill="#323232" transform="matrix(1.0,0.0,0.0,1.0,0.0,0.0)"/></marker><marker id="ProcessOnMarker1050" markerUnits="userSpaceOnUse" orient="auto" markerWidth="16.23606797749979" markerHeight="10.550836550532098" viewBox="-1.0 -1.3763819204711736 16.23606797749979 10.550836550532098" refX="-1.0" refY="3.8990363547948754"><path id="ProcessOnPath1051" d="M12.0 3.8990363547948754L0.0 7.798072709589751V0.0Z" stroke="#323232" stroke-width="2.0" fill="#323232" transform="matrix(1.0,0.0,0.0,1.0,0.0,0.0)"/></marker><marker id="ProcessOnMarker1057" markerUnits="userSpaceOnUse" orient="auto" markerWidth="16.23606797749979" markerHeight="10.550836550532098" viewBox="-1.0 -1.3763819204711736 16.23606797749979 10.550836550532098" refX="-1.0" refY="3.8990363547948754"><path id="ProcessOnPath1058" d="M12.0 3.8990363547948754L0.0 7.798072709589751V0.0Z" stroke="#323232" stroke-width="2.0" fill="#323232" transform="matrix(1.0,0.0,0.0,1.0,0.0,0.0)"/></marker><marker id="ProcessOnMarker1064" markerUnits="userSpaceOnUse" orient="auto" markerWidth="16.23606797749979" markerHeight="10.550836550532098" viewBox="-1.0 -1.3763819204711736 16.23606797749979 10.550836550532098" refX="-1.0" refY="3.8990363547948754"><path id="ProcessOnPath1065" d="M12.0 3.8990363547948754L0.0 7.798072709589751V0.0Z" stroke="#323232" stroke-width="2.0" fill="#323232" transform="matrix(1.0,0.0,0.0,1.0,0.0,0.0)"/></marker><marker id="ProcessOnMarker1071" markerUnits="userSpaceOnUse" orient="auto" markerWidth="16.23606797749979" markerHeight="10.550836550532098" viewBox="-1.0 -1.3763819204711736 16.23606797749979 10.550836550532098" refX="-1.0" refY="3.8990363547948754"><path id="ProcessOnPath1072" d="M12.0 3.8990363547948754L0.0 7.798072709589751V0.0Z" stroke="#323232" stroke-width="2.0" fill="#323232" transform="matrix(1.0,0.0,0.0,1.0,0.0,0.0)"/></marker></defs><g id="ProcessOnG1002"><path id="ProcessOnPath1003" d="M17.5 16.953244274809208H788.5V521.0000000000001H17.5V16.953244274809208Z" fill="none"/><g id="ProcessOnG1004"><g id="ProcessOnG1005" transform="matrix(1.0,0.0,0.0,1.0,554.1427444794951,36.95324427480921)" opacity="1.0"><path id="ProcessOnPath1006" d="M48.428627760252425 30.0L48.428627760252425 464.0467557251909" stroke="#000000" stroke-width="2.0" stroke-dasharray="2.0 3.0" opacity="1.0" fill="none"/><path id="ProcessOnPath1007" d="M0.0 0.0L96.85725552050485 0.0L96.85725552050485 30.0L0.0 30.0Z" stroke="#000000" stroke-width="2.0" stroke-dasharray="none" opacity="1.0" fill="#ffffcc"/><g id="ProcessOnG1008" transform="matrix(1.0,0.0,0.0,1.0,10.0,6.875)"><text id="ProcessOnText1009" fill="#000000" font-size="13" x="37.428627760252425" y="13.325" font-family="微软雅黑" font-weight="bold" font-style="normal" text-decoration="none" family="微软雅黑" text-anchor="middle" size="13">API服务端</text></g></g><g id="ProcessOnG1010" transform="matrix(1.0,0.0,0.0,1.0,102.77129337539421,96.83062977099235)" opacity="1.0"><path id="ProcessOnPath1011" d="M0.0 0.0L21.593059936908503 0.0L21.593059936908503 204.16937022900765L0.0 204.16937022900765Z" stroke="#000000" stroke-width="2.0" stroke-dasharray="none" opacity="1.0" fill="#ffffff"/></g><g id="ProcessOnG1012" transform="matrix(1.0,0.0,0.0,1.0,102.77129337539421,322.83062977099235)" opacity="1.0"><path id="ProcessOnPath1013" d="M0.0 0.0L21.593059936908503 0.0L21.593059936908503 118.16937022900765L0.0 118.16937022900765Z" stroke="#00994d" stroke-width="2.0" stroke-dasharray="none" opacity="1.0" fill="#ffffff"/></g><g id="ProcessOnG1014" transform="matrix(1.0,0.0,0.0,1.0,67.14274447949515,36.95324427480924)" opacity="1.0"><path id="ProcessOnPath1015" d="M46.42507886435331 30.0L46.42507886435331 464.0467557251908" stroke="#000000" stroke-width="2.0" stroke-dasharray="2.0 3.0" opacity="1.0" fill="none"/><path id="ProcessOnPath1016" d="M0.0 0.0L92.85015772870662 0.0L92.85015772870662 30.0L0.0 30.0Z" stroke="#000000" stroke-width="2.0" stroke-dasharray="none" opacity="1.0" fill="#ffffcc"/><g id="ProcessOnG1017" transform="matrix(1.0,0.0,0.0,1.0,10.0,6.875)"><text id="ProcessOnText1018" fill="#000000" font-size="13" x="35.42507886435331" y="13.325" font-family="微软雅黑" font-weight="bold" font-style="normal" text-decoration="none" family="微软雅黑" text-anchor="middle" size="13">APP客户端</text></g></g><g id="ProcessOnG1019" transform="matrix(1.0,0.0,0.0,1.0,589.7712933753942,96.83062977099235)" opacity="1.0"><path id="ProcessOnPath1020" d="M0.0 0.0L21.593059936908503 0.0L21.593059936908503 88.16937022900765L0.0 88.16937022900765Z" stroke="#000000" stroke-width="2.0" stroke-dasharray="none" opacity="1.0" fill="#ffffff"/></g><g id="ProcessOnG1021"><path id="ProcessOnPath1022" d="M124.0 111.4314516015981L357.0 111.4314516015981L357.0 109.0L574.7639320225002 109.0" stroke="#323232" stroke-width="2.0" stroke-dasharray="none" fill="none" marker-end="url(#ProcessOnMarker1023)"/><g id="ProcessOnG1025" transform="matrix(1.0,0.0,0.0,1.0,350.5976918120491,103.3064516015981)"><path id="ProcessOnPath1026" d="M0 0H37.0V16.25H0Z" fill="#fff" transform="matrix(1.0,0.0,0.0,1.0,-18.5,0.0)"/><text id="ProcessOnText1027" fill="#000000" font-size="13" x="0.0" y="13.325" font-family="微软雅黑" font-weight="normal" font-style="normal" text-decoration="none" family="微软雅黑" text-anchor="middle" size="13">1.登录</text></g></g><g id="ProcessOnG1028"><path id="ProcessOnPath1029" d="M590.0 170.0L357.0 170.0L357.0 172.0L139.2360679774998 172.0" stroke="#323232" stroke-width="2.0" stroke-dasharray="none" fill="none" marker-end="url(#ProcessOnMarker1030)"/><g id="ProcessOnG1032" transform="matrix(1.0,0.0,0.0,1.0,363.6180339887499,161.875)"><path id="ProcessOnPath1033" d="M0 0H108.0V16.25H0Z" fill="#fff" transform="matrix(1.0,0.0,0.0,1.0,-54.0,0.0)"/><text id="ProcessOnText1034" fill="#000000" font-size="13" x="0.0" y="13.325" font-family="微软雅黑" font-weight="normal" font-style="normal" text-decoration="none" family="微软雅黑" text-anchor="middle" size="13">3.返回SESSIONID</text></g></g><g id="ProcessOnG1035"><path id="ProcessOnPath1036" d="M124.0 185.0L154.0 185.0L154.0 299.51550892901054L139.2360679774998 299.51550892901054" stroke="#323232" stroke-width="2.0" stroke-dasharray="none" fill="none" marker-end="url(#ProcessOnMarker1037)"/><g id="ProcessOnG1039" transform="matrix(1.0,0.0,0.0,1.0,154.0,210.26472047575538)"><path id="ProcessOnPath1040" d="M0 0H233.0V48.75H0Z" fill="#fff" transform="matrix(1.0,0.0,0.0,1.0,-116.5,0.0)"/><text id="ProcessOnText1041" fill="#000000" font-size="13" x="0.0" y="13.325" font-family="微软雅黑" font-weight="normal" font-style="normal" text-decoration="none" family="微软雅黑" text-anchor="middle" size="13">4.通过CookieSyncManager实例的Sync</text><text id="ProcessOnText1042" fill="#000000" font-size="13" x="0.0" y="29.575" font-family="微软雅黑" font-weight="normal" font-style="normal" text-decoration="none" family="微软雅黑" text-anchor="middle" size="13">同步方法将SESSIONID</text><text id="ProcessOnText1043" fill="#000000" font-size="13" x="0.0" y="45.825" font-family="微软雅黑" font-weight="normal" font-style="normal" text-decoration="none" family="微软雅黑" text-anchor="middle" size="13">同步到WebView的Cookie中</text></g></g><g id="ProcessOnG1044" transform="matrix(1.0,0.0,0.0,1.0,102.77129337539421,273.0)" opacity="1.0"><path id="ProcessOnPath1045" d="M0.0 0.0L21.593059936908503 0.0L21.593059936908503 33.0L0.0 33.0Z" stroke="#000000" stroke-width="2.0" stroke-dasharray="none" opacity="1.0" fill="#ffffff"/></g><g id="ProcessOnG1046" transform="matrix(1.0,0.0,0.0,1.0,591.2712933753942,322.83062977099235)" opacity="1.0"><path id="ProcessOnPath1047" d="M0.0 0.0L18.593059936908503 0.0L18.593059936908503 118.16937022900765L0.0 118.16937022900765Z" stroke="#000000" stroke-width="2.0" stroke-dasharray="none" opacity="1.0" fill="#ffffff"/></g><g id="ProcessOnG1048"><path id="ProcessOnPath1049" d="M124.0 334.0L358.0 334.0L358.0 334.0L576.7639320225002 334.0" stroke="#323232" stroke-width="2.0" stroke-dasharray="none" fill="none" marker-end="url(#ProcessOnMarker1050)"/><g id="ProcessOnG1052" transform="matrix(1.0,0.0,0.0,1.0,350.3819660112501,325.875)"><path id="ProcessOnPath1053" d="M0 0H396.00000000000006V16.25H0Z" fill="#fff" transform="matrix(1.0,0.0,0.0,1.0,-198.00000000000003,0.0)"/><text id="ProcessOnText1054" fill="#000000" font-size="13" x="0.0" y="13.325" font-family="微软雅黑" font-weight="normal" font-style="normal" text-decoration="none" family="微软雅黑" text-anchor="middle" size="13">5.加载axx.html，WebView请求头自动带上Cookie请求页面接口地址</text></g></g><g id="ProcessOnG1055"><path id="ProcessOnPath1056" d="M592.0 409.45246730262585L358.0 409.45246730262585L358.0 409.45246730262585L139.2360679774998 409.45246730262585" stroke="#323232" stroke-width="2.0" stroke-dasharray="none" fill="none" marker-end="url(#ProcessOnMarker1057)"/><g id="ProcessOnG1059" transform="matrix(1.0,0.0,0.0,1.0,365.6180339887499,401.32746730262585)"><path id="ProcessOnPath1060" d="M0 0H89.0V16.25H0Z" fill="#fff" transform="matrix(1.0,0.0,0.0,1.0,-44.5,0.0)"/><text id="ProcessOnText1061" fill="#000000" font-size="13" x="0.0" y="13.325" font-family="微软雅黑" font-weight="normal" font-style="normal" text-decoration="none" family="微软雅黑" text-anchor="middle" size="13">7.返回axx.html</text></g></g><g id="ProcessOnG1062"><path id="ProcessOnPath1063" d="M609.0 333.0L639.0 333.0L639.0 409.45246730262585L624.2360679774998 409.45246730262585" stroke="#323232" stroke-width="2.0" stroke-dasharray="none" fill="none" marker-end="url(#ProcessOnMarker1064)"/><g id="ProcessOnG1066" transform="matrix(1.0,0.0,0.0,1.0,639.0,355.48319966256304)"><path id="ProcessOnPath1067" d="M0 0H259.0V16.25H0Z" fill="#fff" transform="matrix(1.0,0.0,0.0,1.0,-129.5,0.0)"/><text id="ProcessOnText1068" fill="#000000" font-size="13" x="0.0" y="13.325" font-family="微软雅黑" font-weight="normal" font-style="normal" text-decoration="none" family="微软雅黑" text-anchor="middle" size="13">6.通过Cookie中的SESSIONID验证SESSION</text></g></g><g id="ProcessOnG1069"><path id="ProcessOnPath1070" d="M611.0 111.0L640.0 111.0L640.0 169.0L626.2360679774998 169.0" stroke="#323232" stroke-width="2.0" stroke-dasharray="none" fill="none" marker-end="url(#ProcessOnMarker1071)"/><g id="ProcessOnG1073" transform="matrix(1.0,0.0,0.0,1.0,640.0,124.25696601125009)"><path id="ProcessOnPath1074" d="M0 0H89.0V16.25H0Z" fill="#fff" transform="matrix(1.0,0.0,0.0,1.0,-44.5,0.0)"/><text id="ProcessOnText1075" fill="#000000" font-size="13" x="0.0" y="13.325" font-family="微软雅黑" font-weight="normal" font-style="normal" text-decoration="none" family="微软雅黑" text-anchor="middle" size="13">2.验证登录信息</text></g></g></g></g></svg>