<svg xmlns="http://www.w3.org/2000/svg" xmlns:xlink="http://www.w3.org/1999/xlink" id="processonSvg1000" viewBox="-2.5715040202958335 16.953244274809208 798.2875923483716 699.0467557251908" width="798.2875923483716" height="699.0467557251908"><defs id="ProcessOnDefs1001"><marker id="ProcessOnMarker1023" markerUnits="userSpaceOnUse" orient="auto" markerWidth="16.23606797749979" markerHeight="10.550836550532098" viewBox="-1.0 -1.3763819204711736 16.23606797749979 10.550836550532098" refX="-1.0" refY="3.8990363547948754"><path id="ProcessOnPath1024" d="M12.0 3.8990363547948754L0.0 7.798072709589751V0.0Z" stroke="#323232" stroke-width="2.0" fill="#323232" transform="matrix(1.0,0.0,0.0,1.0,0.0,0.0)"/></marker><marker id="ProcessOnMarker1030" markerUnits="userSpaceOnUse" orient="auto" markerWidth="16.23606797749979" markerHeight="10.550836550532098" viewBox="-1.0 -1.3763819204711736 16.23606797749979 10.550836550532098" refX="-1.0" refY="3.8990363547948754"><path id="ProcessOnPath1031" d="M12.0 3.8990363547948754L0.0 7.798072709589751V0.0Z" stroke="#323232" stroke-width="2.0" fill="#323232" transform="matrix(1.0,0.0,0.0,1.0,0.0,0.0)"/></marker><marker id="ProcessOnMarker1037" markerUnits="userSpaceOnUse" orient="auto" markerWidth="16.23606797749979" markerHeight="10.550836550532098" viewBox="-1.0 -1.3763819204711736 16.23606797749979 10.550836550532098" refX="-1.0" refY="3.8990363547948754"><path id="ProcessOnPath1038" d="M12.0 3.8990363547948754L0.0 7.798072709589751V0.0Z" stroke="#323232" stroke-width="2.0" fill="#323232" transform="matrix(1.0,0.0,0.0,1.0,0.0,0.0)"/></marker><marker id="ProcessOnMarker1048" markerUnits="userSpaceOnUse" orient="auto" markerWidth="16.23606797749979" markerHeight="10.550836550532098" viewBox="-1.0 -1.3763819204711736 16.23606797749979 10.550836550532098" refX="-1.0" refY="3.8990363547948754"><path id="ProcessOnPath1049" d="M12.0 3.8990363547948754L0.0 7.798072709589751V0.0Z" stroke="#323232" stroke-width="2.0" fill="#323232" transform="matrix(1.0,0.0,0.0,1.0,0.0,0.0)"/></marker><marker id="ProcessOnMarker1055" markerUnits="userSpaceOnUse" orient="auto" markerWidth="16.23606797749979" markerHeight="10.550836550532098" viewBox="-1.0 -1.3763819204711736 16.23606797749979 10.550836550532098" refX="-1.0" refY="3.8990363547948754"><path id="ProcessOnPath1056" d="M12.0 3.8990363547948754L0.0 7.798072709589751V0.0Z" stroke="#323232" stroke-width="2.0" fill="#323232" transform="matrix(1.0,0.0,0.0,1.0,0.0,0.0)"/></marker><marker id="ProcessOnMarker1062" markerUnits="userSpaceOnUse" orient="auto" markerWidth="16.23606797749979" markerHeight="10.550836550532098" viewBox="-1.0 -1.3763819204711736 16.23606797749979 10.550836550532098" refX="-1.0" refY="3.8990363547948754"><path id="ProcessOnPath1063" d="M12.0 3.8990363547948754L0.0 7.798072709589751V0.0Z" stroke="#323232" stroke-width="2.0" fill="#323232" transform="matrix(1.0,0.0,0.0,1.0,0.0,0.0)"/></marker><marker id="ProcessOnMarker1069" markerUnits="userSpaceOnUse" orient="auto" markerWidth="16.23606797749979" markerHeight="10.550836550532098" viewBox="-1.0 -1.3763819204711736 16.23606797749979 10.550836550532098" refX="-1.0" refY="3.8990363547948754"><path id="ProcessOnPath1070" d="M12.0 3.8990363547948754L0.0 7.798072709589751V0.0Z" stroke="#323232" stroke-width="2.0" fill="#323232" transform="matrix(1.0,0.0,0.0,1.0,0.0,0.0)"/></marker><marker id="ProcessOnMarker1078" markerUnits="userSpaceOnUse" orient="auto" markerWidth="16.23606797749979" markerHeight="10.550836550532098" viewBox="-1.0 -1.3763819204711736 16.23606797749979 10.550836550532098" refX="-1.0" refY="3.8990363547948754"><path id="ProcessOnPath1079" d="M12.0 3.8990363547948754L0.0 7.798072709589751V0.0Z" stroke="#323232" stroke-width="2.0" fill="#323232" transform="matrix(1.0,0.0,0.0,1.0,0.0,0.0)"/></marker><marker id="ProcessOnMarker1085" markerUnits="userSpaceOnUse" orient="auto" markerWidth="16.23606797749979" markerHeight="10.550836550532098" viewBox="-1.0 -1.3763819204711736 16.23606797749979 10.550836550532098" refX="-1.0" refY="3.8990363547948754"><path id="ProcessOnPath1086" d="M12.0 3.8990363547948754L0.0 7.798072709589751V0.0Z" stroke="#323232" stroke-width="2.0" fill="#323232" transform="matrix(1.0,0.0,0.0,1.0,0.0,0.0)"/></marker><marker id="ProcessOnMarker1092" markerUnits="userSpaceOnUse" orient="auto" markerWidth="16.23606797749979" markerHeight="10.550836550532098" viewBox="-1.0 -1.3763819204711736 16.23606797749979 10.550836550532098" refX="-1.0" refY="3.8990363547948754"><path id="ProcessOnPath1093" d="M12.0 3.8990363547948754L0.0 7.798072709589751V0.0Z" stroke="#323232" stroke-width="2.0" fill="#323232" transform="matrix(1.0,0.0,0.0,1.0,0.0,0.0)"/></marker><marker id="ProcessOnMarker1103" markerUnits="userSpaceOnUse" orient="auto" markerWidth="16.23606797749979" markerHeight="10.550836550532098" viewBox="-1.0 -1.3763819204711736 16.23606797749979 10.550836550532098" refX="-1.0" refY="3.8990363547948754"><path id="ProcessOnPath1104" d="M12.0 3.8990363547948754L0.0 7.798072709589751V0.0Z" stroke="#323232" stroke-width="2.0" fill="#323232" transform="matrix(1.0,0.0,0.0,1.0,0.0,0.0)"/></marker><marker id="ProcessOnMarker1110" markerUnits="userSpaceOnUse" orient="auto" markerWidth="16.23606797749979" markerHeight="10.550836550532098" viewBox="-1.0 -1.3763819204711736 16.23606797749979 10.550836550532098" refX="-1.0" refY="3.8990363547948754"><path id="ProcessOnPath1111" d="M12.0 3.8990363547948754L0.0 7.798072709589751V0.0Z" stroke="#323232" stroke-width="2.0" fill="#323232" transform="matrix(1.0,0.0,0.0,1.0,0.0,0.0)"/></marker><marker id="ProcessOnMarker1117" markerUnits="userSpaceOnUse" orient="auto" markerWidth="16.23606797749979" markerHeight="10.550836550532098" viewBox="-1.0 -1.3763819204711736 16.23606797749979 10.550836550532098" refX="-1.0" refY="3.8990363547948754"><path id="ProcessOnPath1118" d="M12.0 3.8990363547948754L0.0 7.798072709589751V0.0Z" stroke="#323232" stroke-width="2.0" fill="#323232" transform="matrix(1.0,0.0,0.0,1.0,0.0,0.0)"/></marker></defs><g id="ProcessOnG1002"><path id="ProcessOnPath1003" d="M-2.5715040202958335 16.953244274809208H795.7160883280758V716.0H-2.5715040202958335V16.953244274809208Z" fill="none"/><g id="ProcessOnG1004"><g id="ProcessOnG1005" transform="matrix(1.0,0.0,0.0,1.0,554.1427444794951,36.95324427480921)" opacity="1.0"><path id="ProcessOnPath1006" d="M47.92507886435328 30.0L47.92507886435328 659.0467557251908" stroke="#000000" stroke-width="2.0" stroke-dasharray="2.0 3.0" opacity="1.0" fill="none"/><path id="ProcessOnPath1007" d="M0.0 0.0L95.85015772870656 0.0L95.85015772870656 30.0L0.0 30.0Z" stroke="#000000" stroke-width="2.0" stroke-dasharray="none" opacity="1.0" fill="#ffffcc"/><g id="ProcessOnG1008" transform="matrix(1.0,0.0,0.0,1.0,10.0,6.875)"><text id="ProcessOnText1009" fill="#000000" font-size="13" x="36.92507886435328" y="13.325" font-family="微软雅黑" font-weight="bold" font-style="normal" text-decoration="none" family="微软雅黑" text-anchor="middle" size="13">API服务端</text></g></g><g id="ProcessOnG1010" transform="matrix(1.0,0.0,0.0,1.0,102.77129337539421,96.83062977099235)" opacity="1.0"><path id="ProcessOnPath1011" d="M0.0 0.0L21.593059936908503 0.0L21.593059936908503 204.16937022900765L0.0 204.16937022900765Z" stroke="#000000" stroke-width="2.0" stroke-dasharray="none" opacity="1.0" fill="#ffffff"/></g><g id="ProcessOnG1012" transform="matrix(1.0,0.0,0.0,1.0,102.77129337539421,312.83062977099235)" opacity="1.0"><path id="ProcessOnPath1013" d="M0.0 0.0L21.593059936908503 0.0L21.593059936908503 220.16937022900765L0.0 220.16937022900765Z" stroke="#00994d" stroke-width="2.0" stroke-dasharray="none" opacity="1.0" fill="#ffffff"/></g><g id="ProcessOnG1014" transform="matrix(1.0,0.0,0.0,1.0,67.14274447949515,36.95324427480924)" opacity="1.0"><path id="ProcessOnPath1015" d="M46.42507886435331 30.0L46.42507886435331 659.0467557251907" stroke="#000000" stroke-width="2.0" stroke-dasharray="2.0 3.0" opacity="1.0" fill="none"/><path id="ProcessOnPath1016" d="M0.0 0.0L92.85015772870662 0.0L92.85015772870662 30.0L0.0 30.0Z" stroke="#000000" stroke-width="2.0" stroke-dasharray="none" opacity="1.0" fill="#ffffcc"/><g id="ProcessOnG1017" transform="matrix(1.0,0.0,0.0,1.0,10.0,6.875)"><text id="ProcessOnText1018" fill="#000000" font-size="13" x="35.42507886435331" y="13.325" font-family="微软雅黑" font-weight="bold" font-style="normal" text-decoration="none" family="微软雅黑" text-anchor="middle" size="13">APP客户端</text></g></g><g id="ProcessOnG1019" transform="matrix(1.0,0.0,0.0,1.0,589.7712933753942,96.83062977099235)" opacity="1.0"><path id="ProcessOnPath1020" d="M0.0 0.0L21.593059936908503 0.0L21.593059936908503 88.16937022900765L0.0 88.16937022900765Z" stroke="#000000" stroke-width="2.0" stroke-dasharray="none" opacity="1.0" fill="#ffffff"/></g><g id="ProcessOnG1021"><path id="ProcessOnPath1022" d="M124.0 111.4314516015981L357.0 111.4314516015981L357.0 109.0L574.7639320225002 109.0" stroke="#323232" stroke-width="2.0" stroke-dasharray="none" fill="none" marker-end="url(#ProcessOnMarker1023)"/><g id="ProcessOnG1025" transform="matrix(1.0,0.0,0.0,1.0,350.5976918120491,103.3064516015981)"><path id="ProcessOnPath1026" d="M0 0H37.0V16.25H0Z" fill="#fff" transform="matrix(1.0,0.0,0.0,1.0,-18.5,0.0)"/><text id="ProcessOnText1027" fill="#000000" font-size="13" x="0.0" y="13.325" font-family="微软雅黑" font-weight="normal" font-style="normal" text-decoration="none" family="微软雅黑" text-anchor="middle" size="13">1.登录</text></g></g><g id="ProcessOnG1028"><path id="ProcessOnPath1029" d="M590.0 170.0L357.0 170.0L357.0 172.0L139.2360679774998 172.0" stroke="#323232" stroke-width="2.0" stroke-dasharray="none" fill="none" marker-end="url(#ProcessOnMarker1030)"/><g id="ProcessOnG1032" transform="matrix(1.0,0.0,0.0,1.0,363.6180339887499,161.875)"><path id="ProcessOnPath1033" d="M0 0H108.0V16.25H0Z" fill="#fff" transform="matrix(1.0,0.0,0.0,1.0,-54.0,0.0)"/><text id="ProcessOnText1034" fill="#000000" font-size="13" x="0.0" y="13.325" font-family="微软雅黑" font-weight="normal" font-style="normal" text-decoration="none" family="微软雅黑" text-anchor="middle" size="13">3.返回SESSIONID</text></g></g><g id="ProcessOnG1035"><path id="ProcessOnPath1036" d="M124.36435331230271 198.91531488549617L154.3643533123027 198.91531488549617L154.0 286.0L139.2360679774998 286.0" stroke="#323232" stroke-width="2.0" stroke-dasharray="none" fill="none" marker-end="url(#ProcessOnMarker1037)"/><g id="ProcessOnG1039" transform="matrix(1.0,0.0,0.0,1.0,146.92849597970417,190.79031488549617)"><path id="ProcessOnPath1040" d="M0 0H259.0V16.25H0Z" fill="#fff" transform="matrix(1.0,0.0,0.0,1.0,-129.5,0.0)"/><text id="ProcessOnText1041" fill="#000000" font-size="13" x="0.0" y="13.325" font-family="微软雅黑" font-weight="normal" font-style="normal" text-decoration="none" family="微软雅黑" text-anchor="middle" size="13">4.将SESSIONID保存到WebView的Cookie中</text></g></g><g id="ProcessOnG1042" transform="matrix(1.0,0.0,0.0,1.0,102.77129337539421,254.83062977099235)" opacity="1.0"><path id="ProcessOnPath1043" d="M0.0 0.0L21.593059936908503 0.0L21.593059936908503 38.79198473282463L0.0 38.79198473282463Z" stroke="#000000" stroke-width="2.0" stroke-dasharray="none" opacity="1.0" fill="#ffffff"/></g><g id="ProcessOnG1044" transform="matrix(1.0,0.0,0.0,1.0,592.7712933753942,312.83062977099235)" opacity="1.0"><path id="ProcessOnPath1045" d="M0.0 0.0L18.593059936908503 0.0L18.593059936908503 214.16937022900765L0.0 214.16937022900765Z" stroke="#000000" stroke-width="2.0" stroke-dasharray="none" opacity="1.0" fill="#ffffff"/></g><g id="ProcessOnG1046"><path id="ProcessOnPath1047" d="M124.0 319.45941081218143L358.48580248273583 319.45941081218143L358.48580248273583 320.18101670217345L577.7355369879718 320.18101670217345" stroke="#323232" stroke-width="2.0" stroke-dasharray="none" fill="none" marker-end="url(#ProcessOnMarker1048)"/><g id="ProcessOnG1050" transform="matrix(1.0,0.0,0.0,1.0,351.22857143898193,311.33441081218143)"><path id="ProcessOnPath1051" d="M0 0H279.0V16.25H0Z" fill="#fff" transform="matrix(1.0,0.0,0.0,1.0,-139.5,0.0)"/><text id="ProcessOnText1052" fill="#000000" font-size="13" x="0.0" y="13.325" font-family="微软雅黑" font-weight="normal" font-style="normal" text-decoration="none" family="微软雅黑" text-anchor="middle" size="13">5.WebView请求头带上Cookie请求页面接口地址</text></g></g><g id="ProcessOnG1053"><path id="ProcessOnPath1054" d="M592.9716049654717 365.8735827796002L358.48580248273583 365.8735827796002L358.48580248273583 366.5217044298462L139.2360679774998 366.5217044298462" stroke="#323232" stroke-width="2.0" stroke-dasharray="none" fill="none" marker-end="url(#ProcessOnMarker1055)"/><g id="ProcessOnG1057" transform="matrix(1.0,0.0,0.0,1.0,365.77977564636274,357.7485827796002)"><path id="ProcessOnPath1058" d="M0 0H89.0V16.25H0Z" fill="#fff" transform="matrix(1.0,0.0,0.0,1.0,-44.5,0.0)"/><text id="ProcessOnText1059" fill="#000000" font-size="13" x="0.0" y="13.325" font-family="微软雅黑" font-weight="normal" font-style="normal" text-decoration="none" family="微软雅黑" text-anchor="middle" size="13">7.返回xxx.html</text></g></g><g id="ProcessOnG1060"><path id="ProcessOnPath1061" d="M610.4885081529297 320.18101670217345L640.4885081529297 320.18101670217345L640.4885081529297 365.8735827796002L625.7245761304296 365.8735827796002" stroke="#323232" stroke-width="2.0" stroke-dasharray="none" fill="none" marker-end="url(#ProcessOnMarker1062)"/><g id="ProcessOnG1064" transform="matrix(1.0,0.0,0.0,1.0,640.4885081529297,327.2842657521369)"><path id="ProcessOnPath1065" d="M0 0H259.0V16.25H0Z" fill="#fff" transform="matrix(1.0,0.0,0.0,1.0,-129.5,0.0)"/><text id="ProcessOnText1066" fill="#000000" font-size="13" x="0.0" y="13.325" font-family="微软雅黑" font-weight="normal" font-style="normal" text-decoration="none" family="微软雅黑" text-anchor="middle" size="13">6.通过Cookie中的SESSIONID验证SESSION</text></g></g><g id="ProcessOnG1067"><path id="ProcessOnPath1068" d="M611.0 111.0L640.0 111.0L640.0 169.0L626.2360679774998 169.0" stroke="#323232" stroke-width="2.0" stroke-dasharray="none" fill="none" marker-end="url(#ProcessOnMarker1069)"/><g id="ProcessOnG1071" transform="matrix(1.0,0.0,0.0,1.0,640.0,124.25696601125009)"><path id="ProcessOnPath1072" d="M0 0H89.0V16.25H0Z" fill="#fff" transform="matrix(1.0,0.0,0.0,1.0,-44.5,0.0)"/><text id="ProcessOnText1073" fill="#000000" font-size="13" x="0.0" y="13.325" font-family="微软雅黑" font-weight="normal" font-style="normal" text-decoration="none" family="微软雅黑" text-anchor="middle" size="13">2.验证登录信息</text></g></g><g id="ProcessOnG1074" transform="matrix(1.0,0.0,0.0,1.0,103.56782334384846,463.0)" opacity="1.0"><path id="ProcessOnPath1075" d="M0.0 0.0L20.0 0.0L20.0 70.0L0.0 70.0Z" stroke="#00994d" stroke-width="2.0" stroke-dasharray="none" opacity="1.0" fill="#ffffff"/></g><g id="ProcessOnG1076"><path id="ProcessOnPath1077" d="M124.0 390.86427009415553L154.0 390.86427009415553L153.28107663889006 464.88785197557115L138.51714461638986 464.88785197557115" stroke="#323232" stroke-width="2.0" stroke-dasharray="none" fill="none" marker-end="url(#ProcessOnMarker1078)"/><g id="ProcessOnG1080" transform="matrix(1.0,0.0,0.0,1.0,146.7414276918051,382.73927009415553)"><path id="ProcessOnPath1081" d="M0 0H128.0V16.25H0Z" fill="#fff" transform="matrix(1.0,0.0,0.0,1.0,-64.0,0.0)"/><text id="ProcessOnText1082" fill="#000000" font-size="13" x="0.0" y="13.325" font-family="微软雅黑" font-weight="normal" font-style="normal" text-decoration="none" family="微软雅黑" text-anchor="middle" size="13">8.按顺序解析xxx.html</text></g></g><g id="ProcessOnG1083"><path id="ProcessOnPath1084" d="M123.0 483.0L358.0 483.0L358.0 482.0L577.7639320225002 482.0" stroke="#323232" stroke-width="2.0" stroke-dasharray="none" fill="none" marker-end="url(#ProcessOnMarker1085)"/><g id="ProcessOnG1087" transform="matrix(1.0,0.0,0.0,1.0,350.8819660112501,474.875)"><path id="ProcessOnPath1088" d="M0 0H237.0V16.25H0Z" fill="#fff" transform="matrix(1.0,0.0,0.0,1.0,-118.5,0.0)"/><text id="ProcessOnText1089" fill="#000000" font-size="13" x="0.0" y="13.325" font-family="微软雅黑" font-weight="normal" font-style="normal" text-decoration="none" family="微软雅黑" text-anchor="middle" size="13">9.请求xxx.html中引入的css,js,img等资源</text></g></g><g id="ProcessOnG1090"><path id="ProcessOnPath1091" d="M593.0 515.0L358.0 515.0L358.0 516.0L138.2360679774998 516.0" stroke="#323232" stroke-width="2.0" stroke-dasharray="none" fill="none" marker-end="url(#ProcessOnMarker1092)"/><g id="ProcessOnG1094" transform="matrix(1.0,0.0,0.0,1.0,365.1180339887499,506.875)"><path id="ProcessOnPath1095" d="M0 0H71.0V16.25H0Z" fill="#fff" transform="matrix(1.0,0.0,0.0,1.0,-35.5,0.0)"/><text id="ProcessOnText1096" fill="#000000" font-size="13" x="0.0" y="13.325" font-family="微软雅黑" font-weight="normal" font-style="normal" text-decoration="none" family="微软雅黑" text-anchor="middle" size="13">10.返回资源</text></g></g><g id="ProcessOnG1097" transform="matrix(1.0,0.0,0.0,1.0,104.78391167192424,557.5)" opacity="1.0"><path id="ProcessOnPath1098" d="M0.0 0.0L20.0 0.0L20.0 107.0L0.0 107.0Z" stroke="#00994d" stroke-width="2.0" stroke-dasharray="none" opacity="1.0" fill="#ffffff"/></g><g id="ProcessOnG1099" transform="matrix(1.0,0.0,0.0,1.0,593.98738170347,559.9153148854962)" opacity="1.0"><path id="ProcessOnPath1100" d="M0.0 0.0L18.593059936908503 0.0L18.593059936908503 102.16937022900765L0.0 102.16937022900765Z" stroke="#000000" stroke-width="2.0" stroke-dasharray="none" opacity="1.0" fill="#ffffff"/></g><g id="ProcessOnG1101"><path id="ProcessOnPath1102" d="M124.21608832807578 573.5L359.2160883280758 573.5L359.2160883280758 573.5L578.980020350576 573.5" stroke="#323232" stroke-width="2.0" stroke-dasharray="none" fill="none" marker-end="url(#ProcessOnMarker1103)"/><g id="ProcessOnG1105" transform="matrix(1.0,0.0,0.0,1.0,351.59805433932587,565.375)"><path id="ProcessOnPath1106" d="M0 0H405.00000000000006V16.25H0Z" fill="#fff" transform="matrix(1.0,0.0,0.0,1.0,-202.50000000000003,0.0)"/><text id="ProcessOnText1107" fill="#000000" font-size="13" x="0.0" y="13.325" font-family="微软雅黑" font-weight="normal" font-style="normal" text-decoration="none" family="微软雅黑" text-anchor="middle" size="13">11.xxx.html页面中的Ajax请求，请求头的Cookie自动带上SESSIONID</text></g></g><g id="ProcessOnG1108"><path id="ProcessOnPath1109" d="M612.2160883280758 574.5L642.2160883280758 574.5L642.2160883280758 648.5L627.4521563055756 648.5" stroke="#323232" stroke-width="2.0" stroke-dasharray="none" fill="none" marker-end="url(#ProcessOnMarker1110)"/><g id="ProcessOnG1112" transform="matrix(1.0,0.0,0.0,1.0,642.2160883280758,595.7569660112501)"><path id="ProcessOnPath1113" d="M0 0H267.0V16.25H0Z" fill="#fff" transform="matrix(1.0,0.0,0.0,1.0,-133.5,0.0)"/><text id="ProcessOnText1114" fill="#000000" font-size="13" x="0.0" y="13.325" font-family="微软雅黑" font-weight="normal" font-style="normal" text-decoration="none" family="微软雅黑" text-anchor="middle" size="13">12.通过Cookie中的SESSIONID验证SESSION</text></g></g><g id="ProcessOnG1115"><path id="ProcessOnPath1116" d="M594.2160883280758 649.5L359.2160883280758 649.5L359.2160883280758 649.5L139.45215630557558 649.5" stroke="#323232" stroke-width="2.0" stroke-dasharray="none" fill="none" marker-end="url(#ProcessOnMarker1117)"/><g id="ProcessOnG1119" transform="matrix(1.0,0.0,0.0,1.0,366.8341223168257,641.375)"><path id="ProcessOnPath1120" d="M0 0H149.0V16.25H0Z" fill="#fff" transform="matrix(1.0,0.0,0.0,1.0,-74.5,0.0)"/><text id="ProcessOnText1121" fill="#000000" font-size="13" x="0.0" y="13.325" font-family="微软雅黑" font-weight="normal" font-style="normal" text-decoration="none" family="微软雅黑" text-anchor="middle" size="13">13.返回业务操作结果信息</text></g></g></g></g></svg>