<svg xmlns="http://www.w3.org/2000/svg" xmlns:xlink="http://www.w3.org/1999/xlink" id="processonSvg1000" viewBox="-4.0 24.0 967.0 947.0" width="967.0" height="947.0"><defs id="ProcessOnDefs1001"><marker id="ProcessOnMarker1023" markerUnits="userSpaceOnUse" orient="auto" markerWidth="16.23606797749979" markerHeight="10.550836550532098" viewBox="-1.0 -1.3763819204711736 16.23606797749979 10.550836550532098" refX="-1.0" refY="3.8990363547948754"><path id="ProcessOnPath1024" d="M12.0 3.8990363547948754L0.0 7.798072709589751V0.0Z" stroke="#323232" stroke-width="2.0" fill="#323232" transform="matrix(1.0,0.0,0.0,1.0,0.0,0.0)"/></marker><marker id="ProcessOnMarker1030" markerUnits="userSpaceOnUse" orient="auto" markerWidth="16.23606797749979" markerHeight="10.550836550532098" viewBox="-1.0 -1.3763819204711736 16.23606797749979 10.550836550532098" refX="-1.0" refY="3.8990363547948754"><path id="ProcessOnPath1031" d="M12.0 3.8990363547948754L0.0 7.798072709589751V0.0Z" stroke="#323232" stroke-width="2.0" fill="#323232" transform="matrix(1.0,0.0,0.0,1.0,0.0,0.0)"/></marker><marker id="ProcessOnMarker1037" markerUnits="userSpaceOnUse" orient="auto" markerWidth="16.23606797749979" markerHeight="10.550836550532098" viewBox="-1.0 -1.3763819204711736 16.23606797749979 10.550836550532098" refX="-1.0" refY="3.8990363547948754"><path id="ProcessOnPath1038" d="M12.0 3.8990363547948754L0.0 7.798072709589751V0.0Z" stroke="#323232" stroke-width="2.0" fill="#323232" transform="matrix(1.0,0.0,0.0,1.0,0.0,0.0)"/></marker><marker id="ProcessOnMarker1048" markerUnits="userSpaceOnUse" orient="auto" markerWidth="16.23606797749979" markerHeight="10.550836550532098" viewBox="-1.0 -1.3763819204711736 16.23606797749979 10.550836550532098" refX="-1.0" refY="3.8990363547948754"><path id="ProcessOnPath1049" d="M12.0 3.8990363547948754L0.0 7.798072709589751V0.0Z" stroke="#323232" stroke-width="2.0" fill="#323232" transform="matrix(1.0,0.0,0.0,1.0,0.0,0.0)"/></marker><marker id="ProcessOnMarker1055" markerUnits="userSpaceOnUse" orient="auto" markerWidth="16.23606797749979" markerHeight="10.550836550532098" viewBox="-1.0 -1.3763819204711736 16.23606797749979 10.550836550532098" refX="-1.0" refY="3.8990363547948754"><path id="ProcessOnPath1056" d="M12.0 3.8990363547948754L0.0 7.798072709589751V0.0Z" stroke="#323232" stroke-width="2.0" fill="#323232" transform="matrix(1.0,0.0,0.0,1.0,0.0,0.0)"/></marker><marker id="ProcessOnMarker1062" markerUnits="userSpaceOnUse" orient="auto" markerWidth="16.23606797749979" markerHeight="10.550836550532098" viewBox="-1.0 -1.3763819204711736 16.23606797749979 10.550836550532098" refX="-1.0" refY="3.8990363547948754"><path id="ProcessOnPath1063" d="M12.0 3.8990363547948754L0.0 7.798072709589751V0.0Z" stroke="#323232" stroke-width="2.0" fill="#323232" transform="matrix(1.0,0.0,0.0,1.0,0.0,0.0)"/></marker><marker id="ProcessOnMarker1069" markerUnits="userSpaceOnUse" orient="auto" markerWidth="16.23606797749979" markerHeight="10.550836550532098" viewBox="-1.0 -1.3763819204711736 16.23606797749979 10.550836550532098" refX="-1.0" refY="3.8990363547948754"><path id="ProcessOnPath1070" d="M12.0 3.8990363547948754L0.0 7.798072709589751V0.0Z" stroke="#323232" stroke-width="2.0" fill="#323232" transform="matrix(1.0,0.0,0.0,1.0,0.0,0.0)"/></marker><marker id="ProcessOnMarker1078" markerUnits="userSpaceOnUse" orient="auto" markerWidth="16.23606797749979" markerHeight="10.550836550532098" viewBox="-1.0 -1.3763819204711736 16.23606797749979 10.550836550532098" refX="-1.0" refY="3.8990363547948754"><path id="ProcessOnPath1079" d="M12.0 3.8990363547948754L0.0 7.798072709589751V0.0Z" stroke="#323232" stroke-width="2.0" fill="#323232" transform="matrix(1.0,0.0,0.0,1.0,0.0,0.0)"/></marker><marker id="ProcessOnMarker1085" markerUnits="userSpaceOnUse" orient="auto" markerWidth="16.23606797749979" markerHeight="10.550836550532098" viewBox="-1.0 -1.3763819204711736 16.23606797749979 10.550836550532098" refX="-1.0" refY="3.8990363547948754"><path id="ProcessOnPath1086" d="M12.0 3.8990363547948754L0.0 7.798072709589751V0.0Z" stroke="#323232" stroke-width="2.0" fill="#323232" transform="matrix(1.0,0.0,0.0,1.0,0.0,0.0)"/></marker><marker id="ProcessOnMarker1109" markerUnits="userSpaceOnUse" orient="auto" markerWidth="16.23606797749979" markerHeight="10.550836550532098" viewBox="-1.0 -1.3763819204711736 16.23606797749979 10.550836550532098" refX="-1.0" refY="3.8990363547948754"><path id="ProcessOnPath1110" d="M12.0 3.8990363547948754L0.0 7.798072709589751V0.0Z" stroke="#ff0000" stroke-width="2.0" fill="#ff0000" transform="matrix(1.0,0.0,0.0,1.0,0.0,0.0)"/></marker><marker id="ProcessOnMarker1116" markerUnits="userSpaceOnUse" orient="auto" markerWidth="16.23606797749979" markerHeight="10.550836550532098" viewBox="-1.0 -1.3763819204711736 16.23606797749979 10.550836550532098" refX="-1.0" refY="3.8990363547948754"><path id="ProcessOnPath1117" d="M12.0 3.8990363547948754L0.0 7.798072709589751V0.0Z" stroke="#323232" stroke-width="2.0" fill="#323232" transform="matrix(1.0,0.0,0.0,1.0,0.0,0.0)"/></marker><marker id="ProcessOnMarker1125" markerUnits="userSpaceOnUse" orient="auto" markerWidth="16.23606797749979" markerHeight="10.550836550532098" viewBox="-1.0 -1.3763819204711736 16.23606797749979 10.550836550532098" refX="-1.0" refY="3.8990363547948754"><path id="ProcessOnPath1126" d="M12.0 3.8990363547948754L0.0 7.798072709589751V0.0Z" stroke="#ff0000" stroke-width="2.0" fill="#ff0000" transform="matrix(1.0,0.0,0.0,1.0,0.0,0.0)"/></marker><marker id="ProcessOnMarker1132" markerUnits="userSpaceOnUse" orient="auto" markerWidth="16.23606797749979" markerHeight="10.550836550532098" viewBox="-1.0 -1.3763819204711736 16.23606797749979 10.550836550532098" refX="-1.0" refY="3.8990363547948754"><path id="ProcessOnPath1133" d="M12.0 3.8990363547948754L0.0 7.798072709589751V0.0Z" stroke="#ff0000" stroke-width="2.0" fill="#ff0000" transform="matrix(1.0,0.0,0.0,1.0,0.0,0.0)"/></marker><marker id="ProcessOnMarker1139" markerUnits="userSpaceOnUse" orient="auto" markerWidth="16.23606797749979" markerHeight="10.550836550532098" viewBox="-1.0 -1.3763819204711736 16.23606797749979 10.550836550532098" refX="-1.0" refY="3.8990363547948754"><path id="ProcessOnPath1140" d="M12.0 3.8990363547948754L0.0 7.798072709589751V0.0Z" stroke="#ff0000" stroke-width="2.0" fill="#ff0000" transform="matrix(1.0,0.0,0.0,1.0,0.0,0.0)"/></marker><marker id="ProcessOnMarker1150" markerUnits="userSpaceOnUse" orient="auto" markerWidth="16.23606797749979" markerHeight="10.550836550532098" viewBox="-1.0 -1.3763819204711736 16.23606797749979 10.550836550532098" refX="-1.0" refY="3.8990363547948754"><path id="ProcessOnPath1151" d="M12.0 3.8990363547948754L0.0 7.798072709589751V0.0Z" stroke="#323232" stroke-width="2.0" fill="#323232" transform="matrix(1.0,0.0,0.0,1.0,0.0,0.0)"/></marker><marker id="ProcessOnMarker1157" markerUnits="userSpaceOnUse" orient="auto" markerWidth="16.23606797749979" markerHeight="10.550836550532098" viewBox="-1.0 -1.3763819204711736 16.23606797749979 10.550836550532098" refX="-1.0" refY="3.8990363547948754"><path id="ProcessOnPath1158" d="M12.0 3.8990363547948754L0.0 7.798072709589751V0.0Z" stroke="#323232" stroke-width="2.0" fill="#323232" transform="matrix(1.0,0.0,0.0,1.0,0.0,0.0)"/></marker><marker id="ProcessOnMarker1164" markerUnits="userSpaceOnUse" orient="auto" markerWidth="16.23606797749979" markerHeight="10.550836550532098" viewBox="-1.0 -1.3763819204711736 16.23606797749979 10.550836550532098" refX="-1.0" refY="3.8990363547948754"><path id="ProcessOnPath1165" d="M12.0 3.8990363547948754L0.0 7.798072709589751V0.0Z" stroke="#323232" stroke-width="2.0" fill="#323232" transform="matrix(1.0,0.0,0.0,1.0,0.0,0.0)"/></marker></defs><g id="ProcessOnG1002"><path id="ProcessOnPath1003" d="M-4.0 24.0H963.0V971.0H-4.0V24.0Z" fill="none"/><g id="ProcessOnG1004"><g id="ProcessOnG1005" transform="matrix(1.0,0.0,0.0,1.0,724.1427444794951,86.95324427480924)" opacity="1.0"><path id="ProcessOnPath1006" d="M47.92507886435328 30.0L47.92507886435328 864.0467557251907" stroke="#000000" stroke-width="2.0" stroke-dasharray="2.0 3.0" opacity="1.0" fill="none"/><path id="ProcessOnPath1007" d="M0.0 0.0L95.85015772870656 0.0L95.85015772870656 30.0L0.0 30.0Z" stroke="#000000" stroke-width="2.0" stroke-dasharray="none" opacity="1.0" fill="#ffffcc"/><g id="ProcessOnG1008" transform="matrix(1.0,0.0,0.0,1.0,10.0,6.875)"><text id="ProcessOnText1009" fill="#000000" font-size="13" x="36.92507886435328" y="13.325" font-family="微软雅黑" font-weight="bold" font-style="normal" text-decoration="none" family="微软雅黑" text-anchor="middle" size="13">API服务端</text></g></g><g id="ProcessOnG1010" transform="matrix(1.0,0.0,0.0,1.0,102.77129337539421,146.83062977099235)" opacity="1.0"><path id="ProcessOnPath1011" d="M0.0 0.0L21.593059936908503 0.0L21.593059936908503 204.16937022900765L0.0 204.16937022900765Z" stroke="#000000" stroke-width="2.0" stroke-dasharray="none" opacity="1.0" fill="#ffffff"/></g><g id="ProcessOnG1012" transform="matrix(1.0,0.0,0.0,1.0,102.77129337539421,392.83062977099235)" opacity="1.0"><path id="ProcessOnPath1013" d="M0.0 0.0L21.593059936908503 0.0L21.593059936908503 411.16937022900765L0.0 411.16937022900765Z" stroke="#00994d" stroke-width="2.0" stroke-dasharray="none" opacity="1.0" fill="#ffffff"/></g><g id="ProcessOnG1014" transform="matrix(1.0,0.0,0.0,1.0,67.14274447949515,86.95324427480926)" opacity="1.0"><path id="ProcessOnPath1015" d="M46.42507886435331 30.0L46.42507886435331 864.0467557251907" stroke="#000000" stroke-width="2.0" stroke-dasharray="2.0 3.0" opacity="1.0" fill="none"/><path id="ProcessOnPath1016" d="M0.0 0.0L92.85015772870662 0.0L92.85015772870662 30.0L0.0 30.0Z" stroke="#000000" stroke-width="2.0" stroke-dasharray="none" opacity="1.0" fill="#ffffcc"/><g id="ProcessOnG1017" transform="matrix(1.0,0.0,0.0,1.0,10.0,6.875)"><text id="ProcessOnText1018" fill="#000000" font-size="13" x="35.42507886435331" y="13.325" font-family="微软雅黑" font-weight="bold" font-style="normal" text-decoration="none" family="微软雅黑" text-anchor="middle" size="13">APP客户端</text></g></g><g id="ProcessOnG1019" transform="matrix(1.0,0.0,0.0,1.0,761.2712933753942,146.83062977099235)" opacity="1.0"><path id="ProcessOnPath1020" d="M0.0 0.0L21.593059936908503 0.0L21.593059936908503 88.16937022900765L0.0 88.16937022900765Z" stroke="#000000" stroke-width="2.0" stroke-dasharray="none" opacity="1.0" fill="#ffffff"/></g><g id="ProcessOnG1021"><path id="ProcessOnPath1022" d="M124.0 161.4314516015981L442.75 161.4314516015981L442.75 159.0L746.2639320225002 159.0" stroke="#323232" stroke-width="2.0" stroke-dasharray="none" fill="none" marker-end="url(#ProcessOnMarker1023)"/><g id="ProcessOnG1025" transform="matrix(1.0,0.0,0.0,1.0,436.3476918120491,153.3064516015981)"><path id="ProcessOnPath1026" d="M0 0H37.0V16.25H0Z" fill="#fff" transform="matrix(1.0,0.0,0.0,1.0,-18.5,0.0)"/><text id="ProcessOnText1027" fill="#000000" font-size="13" x="0.0" y="13.325" font-family="微软雅黑" font-weight="normal" font-style="normal" text-decoration="none" family="微软雅黑" text-anchor="middle" size="13">1.登录</text></g></g><g id="ProcessOnG1028"><path id="ProcessOnPath1029" d="M761.5 220.0L442.75 220.0L442.75 222.0L139.2360679774998 222.0" stroke="#323232" stroke-width="2.0" stroke-dasharray="none" fill="none" marker-end="url(#ProcessOnMarker1030)"/><g id="ProcessOnG1032" transform="matrix(1.0,0.0,0.0,1.0,449.3680339887499,211.875)"><path id="ProcessOnPath1033" d="M0 0H108.0V16.25H0Z" fill="#fff" transform="matrix(1.0,0.0,0.0,1.0,-54.0,0.0)"/><text id="ProcessOnText1034" fill="#000000" font-size="13" x="0.0" y="13.325" font-family="微软雅黑" font-weight="normal" font-style="normal" text-decoration="none" family="微软雅黑" text-anchor="middle" size="13">3.返回SESSIONID</text></g></g><g id="ProcessOnG1035"><path id="ProcessOnPath1036" d="M124.36435331230271 248.91531488549617L154.3643533123027 248.91531488549617L154.0 341.92773124232707L139.2360679774998 341.92773124232707" stroke="#323232" stroke-width="2.0" stroke-dasharray="none" fill="none" marker-end="url(#ProcessOnMarker1037)"/><g id="ProcessOnG1039" transform="matrix(1.0,0.0,0.0,1.0,146.92849597970417,240.79031488549617)"><path id="ProcessOnPath1040" d="M0 0H259.0V16.25H0Z" fill="#fff" transform="matrix(1.0,0.0,0.0,1.0,-129.5,0.0)"/><text id="ProcessOnText1041" fill="#000000" font-size="13" x="0.0" y="13.325" font-family="微软雅黑" font-weight="normal" font-style="normal" text-decoration="none" family="微软雅黑" text-anchor="middle" size="13">4.将SESSIONID保存到WebView的Cookie中</text></g></g><g id="ProcessOnG1042" transform="matrix(1.0,0.0,0.0,1.0,102.77129337539421,304.83062977099235)" opacity="1.0"><path id="ProcessOnPath1043" d="M0.0 0.0L21.593059936908503 0.0L21.593059936908503 46.169370229007654L0.0 46.169370229007654Z" stroke="#000000" stroke-width="2.0" stroke-dasharray="none" opacity="1.0" fill="#ffffff"/></g><g id="ProcessOnG1044" transform="matrix(1.0,0.0,0.0,1.0,762.7712933753942,392.83062977099235)" opacity="1.0"><path id="ProcessOnPath1045" d="M0.0 0.0L18.593059936908503 0.0L18.593059936908503 411.16937022900765L0.0 411.16937022900765Z" stroke="#000000" stroke-width="2.0" stroke-dasharray="none" opacity="1.0" fill="#ffffff"/></g><g id="ProcessOnG1046"><path id="ProcessOnPath1047" d="M124.0 405.20997083581324L443.48580248273583 405.20997083581324L443.48580248273583 406.9421432997552L747.7355369879718 406.9421432997552" stroke="#323232" stroke-width="2.0" stroke-dasharray="none" fill="none" marker-end="url(#ProcessOnMarker1048)"/><g id="ProcessOnG1050" transform="matrix(1.0,0.0,0.0,1.0,436.7338547259569,397.08497083581324)"><path id="ProcessOnPath1051" d="M0 0H279.0V16.25H0Z" fill="#fff" transform="matrix(1.0,0.0,0.0,1.0,-139.5,0.0)"/><text id="ProcessOnText1052" fill="#000000" font-size="13" x="0.0" y="13.325" font-family="微软雅黑" font-weight="normal" font-style="normal" text-decoration="none" family="微软雅黑" text-anchor="middle" size="13">5.WebView请求头带上Cookie请求页面接口地址</text></g></g><g id="ProcessOnG1053"><path id="ProcessOnPath1054" d="M763.0 454.59648047070016L443.5 454.59648047070016L443.5 454.59648047070016L139.2360679774998 454.59648047070016" stroke="#323232" stroke-width="2.0" stroke-dasharray="none" fill="none" marker-end="url(#ProcessOnMarker1055)"/><g id="ProcessOnG1057" transform="matrix(1.0,0.0,0.0,1.0,451.1180339887499,446.47148047070016)"><path id="ProcessOnPath1058" d="M0 0H89.0V16.25H0Z" fill="#fff" transform="matrix(1.0,0.0,0.0,1.0,-44.5,0.0)"/><text id="ProcessOnText1059" fill="#000000" font-size="13" x="0.0" y="13.325" font-family="微软雅黑" font-weight="normal" font-style="normal" text-decoration="none" family="微软雅黑" text-anchor="middle" size="13">7.返回xxx.html</text></g></g><g id="ProcessOnG1060"><path id="ProcessOnPath1061" d="M780.4885081529297 406.9421432997552L810.4885081529297 406.9421432997552L811.0 452.67139220883075L796.2360679774998 452.67139220883075" stroke="#323232" stroke-width="2.0" stroke-dasharray="none" fill="none" marker-end="url(#ProcessOnMarker1062)"/><g id="ProcessOnG1064" transform="matrix(1.0,0.0,0.0,1.0,803.126220087715,398.8171432997552)"><path id="ProcessOnPath1065" d="M0 0H259.0V16.25H0Z" fill="#fff" transform="matrix(1.0,0.0,0.0,1.0,-129.5,0.0)"/><text id="ProcessOnText1066" fill="#000000" font-size="13" x="0.0" y="13.325" font-family="微软雅黑" font-weight="normal" font-style="normal" text-decoration="none" family="微软雅黑" text-anchor="middle" size="13">6.通过Cookie中的SESSIONID验证SESSION</text></g></g><g id="ProcessOnG1067"><path id="ProcessOnPath1068" d="M782.5 161.0L811.5 161.0L811.5 219.0L797.7360679774998 219.0" stroke="#323232" stroke-width="2.0" stroke-dasharray="none" fill="none" marker-end="url(#ProcessOnMarker1069)"/><g id="ProcessOnG1071" transform="matrix(1.0,0.0,0.0,1.0,811.5,174.25696601125009)"><path id="ProcessOnPath1072" d="M0 0H89.0V16.25H0Z" fill="#fff" transform="matrix(1.0,0.0,0.0,1.0,-44.5,0.0)"/><text id="ProcessOnText1073" fill="#000000" font-size="13" x="0.0" y="13.325" font-family="微软雅黑" font-weight="normal" font-style="normal" text-decoration="none" family="微软雅黑" text-anchor="middle" size="13">2.验证登录信息</text></g></g><g id="ProcessOnG1074" transform="matrix(1.0,0.0,0.0,1.0,103.56782334384846,543.0)" opacity="1.0"><path id="ProcessOnPath1075" d="M0.0 0.0L20.0 0.0L20.0 261.0L0.0 261.0Z" stroke="#00994d" stroke-width="2.0" stroke-dasharray="none" opacity="1.0" fill="#ffffff"/></g><g id="ProcessOnG1076"><path id="ProcessOnPath1077" d="M123.0 740.8700361010831L443.0 740.8700361010831L443.0 742.3971756201786L747.7639320225002 742.3971756201786" stroke="#323232" stroke-width="2.0" stroke-dasharray="none" fill="none" marker-end="url(#ProcessOnMarker1078)"/><g id="ProcessOnG1080" transform="matrix(1.0,0.0,0.0,1.0,436.14553577079784,732.7450361010831)"><path id="ProcessOnPath1081" d="M0 0H236.99999999999994V16.25H0Z" fill="#fff" transform="matrix(1.0,0.0,0.0,1.0,-118.49999999999997,0.0)"/><text id="ProcessOnText1082" fill="#000000" font-size="13" x="0.0" y="13.325" font-family="微软雅黑" font-weight="normal" font-style="normal" text-decoration="none" family="微软雅黑" text-anchor="middle" size="13">9.请求xxx.html中引入的css,js,img等资源</text></g></g><g id="ProcessOnG1083"><path id="ProcessOnPath1084" d="M763.0 769.3484112863505L443.0 769.3484112863505L443.0 771.9638989169675L138.2360679774998 771.9638989169675" stroke="#323232" stroke-width="2.0" stroke-dasharray="none" fill="none" marker-end="url(#ProcessOnMarker1085)"/><g id="ProcessOnG1087" transform="matrix(1.0,0.0,0.0,1.0,449.3102901734414,761.2234112863505)"><path id="ProcessOnPath1088" d="M0 0H71.0V16.25H0Z" fill="#fff" transform="matrix(1.0,0.0,0.0,1.0,-35.5,0.0)"/><text id="ProcessOnText1089" fill="#000000" font-size="13" x="0.0" y="13.325" font-family="微软雅黑" font-weight="normal" font-style="normal" text-decoration="none" family="微软雅黑" text-anchor="middle" size="13">10.返回资源</text></g></g><g id="ProcessOnG1090" transform="matrix(1.0,0.0,0.0,1.0,573.1427444794951,86.95324427480921)" opacity="1.0"><path id="ProcessOnPath1091" d="M47.428627760252425 30.0L47.428627760252425 864.0467557251907" stroke="#000000" stroke-width="2.0" stroke-dasharray="2.0 3.0" opacity="1.0" fill="none"/><path id="ProcessOnPath1092" d="M0.0 0.0L94.85725552050485 0.0L94.85725552050485 30.0L0.0 30.0Z" stroke="#000000" stroke-width="2.0" stroke-dasharray="none" opacity="1.0" fill="#ff0000"/><g id="ProcessOnG1093" transform="matrix(1.0,0.0,0.0,1.0,10.0,6.875)"><text id="ProcessOnText1094" fill="#000000" font-size="13" x="36.428627760252425" y="13.325" font-family="微软雅黑" font-weight="bold" font-style="normal" text-decoration="none" family="微软雅黑" text-anchor="middle" size="13">WEB服务A</text></g></g><g id="ProcessOnG1095" transform="matrix(1.0,0.0,0.0,1.0,476.0,44.0)" opacity="1.0"><path id="ProcessOnPath1096" d="M0.0 0.0L193.0 0.0L209.0 16.0L209.0 29.0L0.0 29.0L0.0 0.0Z" stroke="none" stroke-width="0.0" stroke-dasharray="none" opacity="1.0" fill="#ffffaa"/><path id="ProcessOnPath1097" d="M193.0 0.0L193.0 16.0L209.0 16.0Z" stroke="none" stroke-width="0.0" stroke-dasharray="none" opacity="1.0" fill="#cdcd78"/><path id="ProcessOnPath1098" d="M0.0 0.0L193.0 0.0L209.0 16.0L209.0 29.0L0.0 29.0L0.0 0.0Z" stroke="none" stroke-width="0.0" stroke-dasharray="none" opacity="1.0" fill="none"/><g id="ProcessOnG1099" transform="matrix(1.0,0.0,0.0,1.0,10.0,6.375)"><text id="ProcessOnText1100" fill="#000000" font-size="13" x="93.5" y="13.325" font-family="微软雅黑" font-weight="normal" font-style="normal" text-decoration="none" family="微软雅黑" text-anchor="middle" size="13">项目A地址 www.pro-web.com</text></g></g><g id="ProcessOnG1101" transform="matrix(1.0,0.0,0.0,1.0,707.1427444794951,44.0)" opacity="1.0"><path id="ProcessOnPath1102" d="M0.0 0.0L211.85725552050485 0.0L227.85725552050485 16.0L227.85725552050485 29.0L0.0 29.0L0.0 0.0Z" stroke="none" stroke-width="0.0" stroke-dasharray="none" opacity="1.0" fill="#ffffaa"/><path id="ProcessOnPath1103" d="M211.85725552050485 0.0L211.85725552050485 16.0L227.85725552050485 16.0Z" stroke="none" stroke-width="0.0" stroke-dasharray="none" opacity="1.0" fill="#cdcd78"/><path id="ProcessOnPath1104" d="M0.0 0.0L211.85725552050485 0.0L227.85725552050485 16.0L227.85725552050485 29.0L0.0 29.0L0.0 0.0Z" stroke="none" stroke-width="0.0" stroke-dasharray="none" opacity="1.0" fill="none"/><g id="ProcessOnG1105" transform="matrix(1.0,0.0,0.0,1.0,10.0,6.375)"><text id="ProcessOnText1106" fill="#000000" font-size="13" x="102.92862776025243" y="13.325" font-family="微软雅黑" font-weight="normal" font-style="normal" text-decoration="none" family="微软雅黑" text-anchor="middle" size="13">项目B地址www.pro-web.com/api</text></g></g><g id="ProcessOnG1107"><path id="ProcessOnPath1108" d="M123.0 573.1516245487364L366.5 573.1516245487364L366.5 577.0L594.7639320225002 577.0" stroke="#ff0000" stroke-width="2.0" stroke-dasharray="none" fill="none" marker-end="url(#ProcessOnMarker1109)"/><g id="ProcessOnG1111" transform="matrix(1.0,0.0,0.0,1.0,360.80615373688187,565.0266245487364)"><path id="ProcessOnPath1112" d="M0 0H170.0V16.25H0Z" fill="#fff" transform="matrix(1.0,0.0,0.0,1.0,-85.0,0.0)"/><text id="ProcessOnText1113" fill="#000000" font-size="13" x="0.0" y="13.325" font-family="微软雅黑" font-weight="normal" font-style="normal" text-decoration="none" family="微软雅黑" text-anchor="middle" size="13">请求域名下的favicon.ico图标</text></g></g><g id="ProcessOnG1114"><path id="ProcessOnPath1115" d="M124.0 480.58517200593735L154.0 480.58517200593735L153.23395555688103 544.5478973506433L138.47002353438083 544.5478973506433" stroke="#323232" stroke-width="2.0" stroke-dasharray="none" fill="none" marker-end="url(#ProcessOnMarker1116)"/><g id="ProcessOnG1118" transform="matrix(1.0,0.0,0.0,1.0,146.76498823280957,472.46017200593735)"><path id="ProcessOnPath1119" d="M0 0H128.0V16.25H0Z" fill="#fff" transform="matrix(1.0,0.0,0.0,1.0,-64.0,0.0)"/><text id="ProcessOnText1120" fill="#000000" font-size="13" x="0.0" y="13.325" font-family="微软雅黑" font-weight="normal" font-style="normal" text-decoration="none" family="微软雅黑" text-anchor="middle" size="13">8.按顺序解析xxx.html</text></g></g><g id="ProcessOnG1121" transform="matrix(1.0,0.0,0.0,1.0,609.7748422712933,565.8306297709923)" opacity="1.0"><path id="ProcessOnPath1122" d="M0.0 0.0L21.593059936908503 0.0L21.593059936908503 81.16937022900765L0.0 81.16937022900765Z" stroke="#ff0000" stroke-width="2.0" stroke-dasharray="none" opacity="1.0" fill="#ffffff"/></g><g id="ProcessOnG1123"><path id="ProcessOnPath1124" d="M631.0 576.0L661.0 576.0L661.0 635.0L646.2360679774998 635.0" stroke="#ff0000" stroke-width="2.0" stroke-dasharray="none" fill="none" marker-end="url(#ProcessOnMarker1125)"/><g id="ProcessOnG1127" transform="matrix(1.0,0.0,0.0,1.0,661.0,589.7569660112501)"><path id="ProcessOnPath1128" d="M0 0H170.0V16.25H0Z" fill="#fff" transform="matrix(1.0,0.0,0.0,1.0,-85.0,0.0)"/><text id="ProcessOnText1129" fill="#000000" font-size="13" x="0.0" y="13.325" font-family="微软雅黑" font-weight="normal" font-style="normal" text-decoration="none" family="微软雅黑" text-anchor="middle" size="13">404,被重定向到服务授权页面</text></g></g><g id="ProcessOnG1130"><path id="ProcessOnPath1131" d="M610.0 637.0L366.5 637.0L366.5 634.0L138.2360679774998 634.0" stroke="#ff0000" stroke-width="2.0" stroke-dasharray="none" fill="none" marker-end="url(#ProcessOnMarker1132)"/><g id="ProcessOnG1134" transform="matrix(1.0,0.0,0.0,1.0,372.6180339887499,628.875)"><path id="ProcessOnPath1135" d="M0 0H123.0V16.25H0Z" fill="#fff" transform="matrix(1.0,0.0,0.0,1.0,-61.5,0.0)"/><text id="ProcessOnText1136" fill="#000000" font-size="13" x="0.0" y="13.325" font-family="微软雅黑" font-weight="normal" font-style="normal" text-decoration="none" family="微软雅黑" text-anchor="middle" size="13">返回新的SESSIONID</text></g></g><g id="ProcessOnG1137"><path id="ProcessOnPath1138" d="M123.0 657.9530685920578L153.0 657.9530685920578L153.0 714.4873646209386L138.2360679774998 714.4873646209386" stroke="#ff0000" stroke-width="2.0" stroke-dasharray="none" fill="none" marker-end="url(#ProcessOnMarker1139)"/><g id="ProcessOnG1141" transform="matrix(1.0,0.0,0.0,1.0,153.0,670.4771826177483)"><path id="ProcessOnPath1142" d="M0 0H274.0V16.25H0Z" fill="#fff" transform="matrix(1.0,0.0,0.0,1.0,-137.0,0.0)"/><text id="ProcessOnText1143" fill="#000000" font-size="13" x="0.0" y="13.325" font-family="微软雅黑" font-weight="normal" font-style="normal" text-decoration="none" family="微软雅黑" text-anchor="middle" size="13">自动将SESSIONID保存到WebView的Cookie中</text></g></g><g id="ProcessOnG1144" transform="matrix(1.0,0.0,0.0,1.0,103.56782334384846,829.0)" opacity="1.0"><path id="ProcessOnPath1145" d="M0.0 0.0L20.0 0.0L20.0 107.0L0.0 107.0Z" stroke="#00994d" stroke-width="2.0" stroke-dasharray="none" opacity="1.0" fill="#ffffff"/></g><g id="ProcessOnG1146" transform="matrix(1.0,0.0,0.0,1.0,762.7712933753942,831.4153148854962)" opacity="1.0"><path id="ProcessOnPath1147" d="M0.0 0.0L18.593059936908503 0.0L18.593059936908503 102.16937022900765L0.0 102.16937022900765Z" stroke="#000000" stroke-width="2.0" stroke-dasharray="none" opacity="1.0" fill="#ffffff"/></g><g id="ProcessOnG1148"><path id="ProcessOnPath1149" d="M123.0 845.0L443.0 845.0L443.0 845.0L747.7639320225002 845.0" stroke="#323232" stroke-width="2.0" stroke-dasharray="none" fill="none" marker-end="url(#ProcessOnMarker1150)"/><g id="ProcessOnG1152" transform="matrix(1.0,0.0,0.0,1.0,435.3819660112501,836.875)"><path id="ProcessOnPath1153" d="M0 0H405.00000000000006V16.25H0Z" fill="#fff" transform="matrix(1.0,0.0,0.0,1.0,-202.50000000000003,0.0)"/><text id="ProcessOnText1154" fill="#000000" font-size="13" x="0.0" y="13.325" font-family="微软雅黑" font-weight="normal" font-style="normal" text-decoration="none" family="微软雅黑" text-anchor="middle" size="13">11.xxx.html页面中的Ajax请求，请求头的Cookie自动带上SESSIONID</text></g></g><g id="ProcessOnG1155"><path id="ProcessOnPath1156" d="M781.0 846.0L811.0 846.0L811.0 920.0L796.2360679774998 920.0" stroke="#323232" stroke-width="2.0" stroke-dasharray="none" fill="none" marker-end="url(#ProcessOnMarker1157)"/><g id="ProcessOnG1159" transform="matrix(1.0,0.0,0.0,1.0,811.0,867.2569660112501)"><path id="ProcessOnPath1160" d="M0 0H264.0V16.25H0Z" fill="#fff" transform="matrix(1.0,0.0,0.0,1.0,-132.0,0.0)"/><text id="ProcessOnText1161" fill="#000000" font-size="13" x="0.0" y="13.325" font-family="微软雅黑" font-weight="normal" font-style="normal" text-decoration="none" family="微软雅黑" text-anchor="middle" size="13">12.无法根据SESSIONID找到对应的SESSION</text></g></g><g id="ProcessOnG1162"><path id="ProcessOnPath1163" d="M763.0 921.0L443.0 921.0L443.0 921.0L138.2360679774998 921.0" stroke="#323232" stroke-width="2.0" stroke-dasharray="none" fill="none" marker-end="url(#ProcessOnMarker1164)"/><g id="ProcessOnG1166" transform="matrix(1.0,0.0,0.0,1.0,450.6180339887499,912.875)"><path id="ProcessOnPath1167" d="M0 0H226.99999999999994V16.25H0Z" fill="#fff" transform="matrix(1.0,0.0,0.0,1.0,-113.49999999999997,0.0)"/><text id="ProcessOnText1168" fill="#000000" font-size="13" x="0.0" y="13.325" font-family="微软雅黑" font-weight="normal" font-style="normal" text-decoration="none" family="微软雅黑" text-anchor="middle" size="13">13.返回未登录状态，无法进行业务操作</text></g></g></g></g></svg>